<svg width="16" height="16" viewBox="0 0 16 16" fill="none" xmlns="http://www.w3.org/2000/svg">
<path d="M14.9935 12.3825L14.1023 4.8825C14.0734 4.63814 13.9554 4.41301 13.7709 4.25019C13.5864 4.08737 13.3483 3.9983 13.1023 4H11.0004C11.0004 3.20435 10.6843 2.44129 10.1217 1.87868C9.55912 1.31607 8.79606 1 8.00041 1C7.20476 1 6.4417 1.31607 5.87909 1.87868C5.31648 2.44129 5.00041 3.20435 5.00041 4H2.89604C2.64997 3.9983 2.41192 4.08737 2.22743 4.25019C2.04293 4.41301 1.92494 4.63814 1.89604 4.8825L1.00479 12.3825C0.988452 12.5225 1.00189 12.6643 1.04422 12.7988C1.08655 12.9332 1.15682 13.0571 1.25041 13.1625C1.34468 13.2683 1.4602 13.3531 1.58943 13.4112C1.71866 13.4694 1.8587 13.4996 2.00041 13.5H13.9954C14.138 13.5003 14.279 13.4704 14.4091 13.4122C14.5393 13.3541 14.6556 13.2689 14.7504 13.1625C14.8436 13.0569 14.9134 12.9329 14.9553 12.7985C14.9972 12.664 15.0102 12.5223 14.9935 12.3825ZM6.00041 6.5C6.00041 6.63261 5.94773 6.75979 5.85396 6.85355C5.7602 6.94732 5.63302 7 5.50041 7C5.3678 7 5.24062 6.94732 5.14686 6.85355C5.05309 6.75979 5.00041 6.63261 5.00041 6.5V5.5C5.00041 5.36739 5.05309 5.24021 5.14686 5.14645C5.24062 5.05268 5.3678 5 5.50041 5C5.63302 5 5.7602 5.05268 5.85396 5.14645C5.94773 5.24021 6.00041 5.36739 6.00041 5.5V6.5ZM8.00041 2C8.53084 2 9.03955 2.21071 9.41462 2.58579C9.7897 2.96086 10.0004 3.46957 10.0004 4H6.00041C6.00041 3.46957 6.21112 2.96086 6.5862 2.58579C6.96127 2.21071 7.46998 2 8.00041 2ZM11.0004 6.5C11.0004 6.63261 10.9477 6.75979 10.854 6.85355C10.7602 6.94732 10.633 7 10.5004 7C10.3678 7 10.2406 6.94732 10.1469 6.85355C10.0531 6.75979 10.0004 6.63261 10.0004 6.5V5.5C10.0004 5.36739 10.0531 5.24021 10.1469 5.14645C10.2406 5.05268 10.3678 5 10.5004 5C10.633 5 10.7602 5.05268 10.854 5.14645C10.9477 5.24021 11.0004 5.36739 11.0004 5.5V6.5Z" fill="#3E4069"/>
</svg>
