<svg width="23" height="24" viewBox="0 0 23 24" fill="none" xmlns="http://www.w3.org/2000/svg">
<rect x="0.293945" y="0.705872" width="22.5882" height="22.5882" rx="11.2941" fill="#F2994A"/>
<path d="M21.461 18.1871L20.2027 7.59885C20.1619 7.25387 19.9954 6.93604 19.7349 6.70618C19.4744 6.47632 19.1384 6.35056 18.791 6.35297H15.8236C15.8236 5.2297 15.3774 4.15244 14.5831 3.35816C13.7889 2.56389 12.7116 2.11768 11.5883 2.11768C10.4651 2.11768 9.38779 2.56389 8.59352 3.35816C7.79925 4.15244 7.35303 5.2297 7.35303 6.35297H4.38215C4.03477 6.35056 3.6987 6.47632 3.43823 6.70618C3.17777 6.93604 3.01119 7.25387 2.97038 7.59885L1.71215 18.1871C1.68909 18.3847 1.70806 18.585 1.76783 18.7747C1.82759 18.9645 1.92678 19.1395 2.05891 19.2883C2.192 19.4376 2.35509 19.5573 2.53753 19.6394C2.71997 19.7215 2.91767 19.7642 3.11774 19.7647H20.0519C20.2531 19.7652 20.4522 19.723 20.6359 19.6408C20.8196 19.5587 20.9839 19.4385 21.1177 19.2883C21.2492 19.1392 21.3478 18.9641 21.4069 18.7743C21.4661 18.5846 21.4845 18.3845 21.461 18.1871ZM8.7648 9.88238C8.7648 10.0696 8.69043 10.2491 8.55805 10.3815C8.42567 10.5139 8.24613 10.5883 8.05891 10.5883C7.8717 10.5883 7.69216 10.5139 7.55978 10.3815C7.4274 10.2491 7.35303 10.0696 7.35303 9.88238V8.47062C7.35303 8.28341 7.4274 8.10386 7.55978 7.97148C7.69216 7.8391 7.8717 7.76474 8.05891 7.76474C8.24613 7.76474 8.42567 7.8391 8.55805 7.97148C8.69043 8.10386 8.7648 8.28341 8.7648 8.47062V9.88238ZM11.5883 3.52944C12.3372 3.52944 13.0553 3.82692 13.5849 4.35643C14.1144 4.88595 14.4119 5.60412 14.4119 6.35297H8.7648C8.7648 5.60412 9.06228 4.88595 9.59179 4.35643C10.1213 3.82692 10.8395 3.52944 11.5883 3.52944ZM15.8236 9.88238C15.8236 10.0696 15.7493 10.2491 15.6169 10.3815C15.4845 10.5139 15.305 10.5883 15.1177 10.5883C14.9305 10.5883 14.751 10.5139 14.6186 10.3815C14.4862 10.2491 14.4119 10.0696 14.4119 9.88238V8.47062C14.4119 8.28341 14.4862 8.10386 14.6186 7.97148C14.751 7.8391 14.9305 7.76474 15.1177 7.76474C15.305 7.76474 15.4845 7.8391 15.6169 7.97148C15.7493 8.10386 15.8236 8.28341 15.8236 8.47062V9.88238Z" fill="#3E4069"/>
</svg>
