<svg width="33" height="33" viewBox="0 0 33 33" fill="none" xmlns="http://www.w3.org/2000/svg">
<path d="M2.66602 14.5H30.666" stroke="#343330" stroke-width="2" stroke-linecap="round" stroke-linejoin="round"/>
<path d="M28.666 22.5V25.5C28.666 25.7652 28.5607 26.0196 28.3731 26.2071C28.1856 26.3946 27.9312 26.5 27.666 26.5H24.666C24.4008 26.5 24.1464 26.3946 23.9589 26.2071C23.7714 26.0196 23.666 25.7652 23.666 25.5V22.5" stroke="#343330" stroke-width="2" stroke-linecap="round" stroke-linejoin="round"/>
<path d="M9.66602 22.5V25.5C9.66602 25.7652 9.56066 26.0196 9.37312 26.2071C9.18559 26.3946 8.93123 26.5 8.66602 26.5H5.66602C5.4008 26.5 5.14645 26.3946 4.95891 26.2071C4.77137 26.0196 4.66602 25.7652 4.66602 25.5V22.5" stroke="#343330" stroke-width="2" stroke-linecap="round" stroke-linejoin="round"/>
<path d="M8.66602 18.5H10.666" stroke="#343330" stroke-width="2" stroke-linecap="round" stroke-linejoin="round"/>
<path d="M22.666 18.5H24.666" stroke="#343330" stroke-width="2" stroke-linecap="round" stroke-linejoin="round"/>
<path d="M28.666 14.5L24.9298 6.09375C24.8512 5.91702 24.7231 5.76686 24.5609 5.66148C24.3987 5.55609 24.2094 5.5 24.016 5.5H9.31602C9.1226 5.5 8.93334 5.55609 8.77116 5.66148C8.60898 5.76686 8.48084 5.91702 8.40227 6.09375L4.66602 14.5V22.5H28.666V14.5Z" stroke="#343330" stroke-width="2" stroke-linecap="round" stroke-linejoin="round"/>
</svg>
