<svg width="23" height="23" viewBox="0 0 23 23" fill="none" xmlns="http://www.w3.org/2000/svg">
<rect x="0.293945" width="22.5882" height="22.5882" rx="11.2941" fill="#BDD6FF"/>
<path d="M21.4706 9.17643H20.5176L18.0665 3.66172C17.9555 3.41222 17.7746 3.20023 17.5457 3.05146C17.3167 2.90268 17.0495 2.82349 16.7765 2.82349H6.4C6.12695 2.82349 5.85975 2.90268 5.63079 3.05146C5.40183 3.20023 5.22093 3.41222 5.11 3.66172L2.65882 9.17643H1.70588C1.51867 9.17643 1.33913 9.2508 1.20675 9.38318C1.07437 9.51556 1 9.6951 1 9.88231C1 10.0695 1.07437 10.2491 1.20675 10.3814C1.33913 10.5138 1.51867 10.5882 1.70588 10.5882H2.41176V17.647C2.41176 18.0214 2.5605 18.3805 2.82526 18.6453C3.09002 18.91 3.44911 19.0588 3.82353 19.0588H5.94118C6.3156 19.0588 6.67469 18.91 6.93945 18.6453C7.2042 18.3805 7.35294 18.0214 7.35294 17.647V16.9411H15.8235V17.647C15.8235 18.0214 15.9723 18.3805 16.237 18.6453C16.5018 18.91 16.8609 19.0588 17.2353 19.0588H19.3529C19.7274 19.0588 20.0865 18.91 20.3512 18.6453C20.616 18.3805 20.7647 18.0214 20.7647 17.647V10.5882H21.4706C21.6578 10.5882 21.8373 10.5138 21.9697 10.3814C22.1021 10.2491 22.1765 10.0695 22.1765 9.88231C22.1765 9.6951 22.1021 9.51556 21.9697 9.38318C21.8373 9.2508 21.6578 9.17643 21.4706 9.17643ZM7.35294 13.4117H5.23529C5.04808 13.4117 4.86854 13.3374 4.73616 13.205C4.60378 13.0726 4.52941 12.8931 4.52941 12.7058C4.52941 12.5186 4.60378 12.3391 4.73616 12.2067C4.86854 12.0743 5.04808 12 5.23529 12H7.35294C7.54015 12 7.7197 12.0743 7.85208 12.2067C7.98445 12.3391 8.05882 12.5186 8.05882 12.7058C8.05882 12.8931 7.98445 13.0726 7.85208 13.205C7.7197 13.3374 7.54015 13.4117 7.35294 13.4117ZM17.9412 13.4117H15.8235C15.6363 13.4117 15.4568 13.3374 15.3244 13.205C15.192 13.0726 15.1176 12.8931 15.1176 12.7058C15.1176 12.5186 15.192 12.3391 15.3244 12.2067C15.4568 12.0743 15.6363 12 15.8235 12H17.9412C18.1284 12 18.3079 12.0743 18.4403 12.2067C18.5727 12.3391 18.6471 12.5186 18.6471 12.7058C18.6471 12.8931 18.5727 13.0726 18.4403 13.205C18.3079 13.3374 18.1284 13.4117 17.9412 13.4117ZM4.20382 9.17643L6.4 4.23525H16.7765L18.9726 9.17643H4.20382Z" fill="#3E4069"/>
</svg>
