<svg width="23" height="24" viewBox="0 0 23 24" fill="none" xmlns="http://www.w3.org/2000/svg">
<rect x="0.293945" y="0.705872" width="22.5882" height="22.5882" rx="11.2941" fill="#C5FF00"/>
<path d="M19.3528 12C19.1675 11.9999 18.9825 12.0147 18.7995 12.0441L15.7784 3.98736C15.7279 3.85284 15.6376 3.73693 15.5195 3.6551C15.4014 3.57327 15.2611 3.52942 15.1175 3.52942H12.2939C12.1067 3.52942 11.9272 3.60379 11.7948 3.73617C11.6624 3.86855 11.5881 4.04809 11.5881 4.2353C11.5881 4.42251 11.6624 4.60206 11.7948 4.73444C11.9272 4.86681 12.1067 4.94118 12.2939 4.94118H14.6287L17.4787 12.5409C17.0736 12.7945 16.724 13.1275 16.4511 13.5198C16.1781 13.9121 15.9874 14.3556 15.8904 14.8235H12.3416L10.1357 8.92854C10.085 8.79331 9.994 8.6769 9.87503 8.59501C9.75606 8.51312 9.61484 8.4697 9.47042 8.4706H2.41159C2.22438 8.4706 2.04484 8.54497 1.91246 8.67734C1.78008 8.80972 1.70571 8.98927 1.70571 9.17648C1.70571 9.36369 1.78008 9.54323 1.91246 9.67561C2.04484 9.80799 2.22438 9.88236 2.41159 9.88236H3.11748V11.0638C2.27325 11.4657 1.56005 12.0983 1.06038 12.8886C0.560709 13.6789 0.294983 14.5944 0.293945 15.5294C0.293945 15.7166 0.368315 15.8962 0.500693 16.0286C0.633072 16.1609 0.812616 16.2353 0.999828 16.2353H1.7763C1.93831 17.0332 2.37117 17.7505 3.00153 18.2657C3.63189 18.7809 4.42099 19.0624 5.23512 19.0624C6.04926 19.0624 6.83835 18.7809 7.46872 18.2657C8.09908 17.7505 8.53194 17.0332 8.69395 16.2353H15.8939C16.0275 16.8896 16.3439 17.4926 16.8065 17.9742C17.2691 18.4558 17.8588 18.7964 18.5072 18.9562C19.1555 19.1161 19.836 19.0887 20.4694 18.8773C21.1028 18.6659 21.6633 18.2791 22.0857 17.7619C22.5081 17.2447 22.7751 16.6182 22.8557 15.9553C22.9363 15.2924 22.8271 14.6203 22.5409 14.0169C22.2548 13.4135 21.8033 12.9038 21.2389 12.5467C20.6746 12.1897 20.0206 12.0001 19.3528 12ZM5.23512 17.6471C4.79732 17.6469 4.37031 17.5111 4.01289 17.2583C3.65546 17.0055 3.38518 16.6481 3.23924 16.2353H7.23101C7.08507 16.6481 6.81479 17.0055 6.45736 17.2583C6.09993 17.5111 5.67293 17.6469 5.23512 17.6471ZM19.3528 17.6471C18.9187 17.6466 18.4952 17.5127 18.1398 17.2636C17.7843 17.0144 17.5139 16.6621 17.3654 16.2542C17.2168 15.8463 17.1972 15.4027 17.3091 14.9833C17.4211 14.5639 17.6592 14.189 17.9913 13.9094L18.6919 15.7774C18.7244 15.8643 18.7738 15.9439 18.8371 16.0117C18.9005 16.0796 18.9766 16.1343 19.061 16.1727C19.1455 16.2111 19.2367 16.2325 19.3295 16.2357C19.4222 16.2389 19.5147 16.2237 19.6016 16.1912C19.6885 16.1586 19.7681 16.1093 19.836 16.0459C19.9038 15.9826 19.9585 15.9065 19.9969 15.822C20.0353 15.7376 20.0568 15.6463 20.0599 15.5536C20.0631 15.4608 20.048 15.3684 20.0154 15.2815L19.3131 13.4118H19.3528C19.9144 13.4118 20.453 13.6349 20.8502 14.032C21.2473 14.4292 21.4704 14.9678 21.4704 15.5294C21.4704 16.0911 21.2473 16.6297 20.8502 17.0268C20.453 17.424 19.9144 17.6471 19.3528 17.6471Z" fill="#3E4069"/>
</svg>
