<svg width="239" height="239" viewBox="0 0 239 239" fill="none" xmlns="http://www.w3.org/2000/svg">
<path d="M119.5 89.625C127.75 89.625 134.438 82.9373 134.438 74.6875C134.438 66.4377 127.75 59.75 119.5 59.75C111.25 59.75 104.562 66.4377 104.562 74.6875C104.562 82.9373 111.25 89.625 119.5 89.625Z" fill="white"/>
<path d="M171.781 74.6875C171.781 126.969 119.5 156.844 119.5 156.844C119.5 156.844 67.2188 126.969 67.2188 74.6875C67.2188 60.8217 72.7269 47.5237 82.5316 37.7191C92.3362 27.9144 105.634 22.4063 119.5 22.4062C133.366 22.4063 146.664 27.9144 156.468 37.7191C166.273 47.5237 171.781 60.8217 171.781 74.6875Z" stroke="white" stroke-width="14.9375" stroke-linecap="round" stroke-linejoin="round"/>
<path d="M186.719 144.838C205.129 151.635 216.594 161.195 216.594 171.782C216.594 192.405 173.126 209.126 119.5 209.126C65.8744 209.126 22.4062 192.405 22.4062 171.782C22.4062 161.195 33.8708 151.635 52.2812 144.838" stroke="white" stroke-width="14.9375" stroke-linecap="round" stroke-linejoin="round"/>
</svg>
