<svg width="3164" height="3164" viewBox="0 0 3164 3164" fill="none" xmlns="http://www.w3.org/2000/svg">
<path fill-rule="evenodd" clip-rule="evenodd" d="M2037.02 1147.41C1995.58 1121.9 1962 1085.42 1940.01 1042C1918.02 998.578 1908.48 949.92 1912.44 901.412L1647.92 854.941L1670.73 725.085L1956.67 775.313C1980.82 739.544 2013.38 710.248 2051.49 689.997C2089.6 669.747 2132.09 659.161 2175.25 659.168H2398.38C2420.79 659.168 2438.92 677.295 2438.92 699.707V1145.96C2438.92 1168.37 2420.73 1186.5 2398.38 1186.5H2373V1730.31C2387.28 1726.23 2401.81 1722.87 2416.57 1720.23C2515.24 1702.84 2616.89 1720.58 2703.84 1770.36C2790.79 1820.15 2857.54 1898.83 2892.49 1992.73C2913.12 2048.1 2891.17 2098.66 2853.34 2128.78C2856.59 2216.29 2828.07 2302.03 2773.03 2370.15C2718 2438.26 2640.17 2484.17 2553.93 2499.37C2467.69 2514.57 2378.85 2498.05 2303.84 2452.85C2228.83 2407.66 2172.72 2336.85 2145.85 2253.49C2110.19 2241.5 2079.21 2214.6 2067.48 2175.25H1316.95C1308.86 2265.43 1267.32 2349.32 1200.49 2410.42C1133.67 2471.52 1046.4 2505.4 955.859 2505.4C865.315 2505.4 778.048 2471.52 711.224 2410.42C644.401 2349.32 602.858 2265.43 594.767 2175.25H294.649C290.692 2175.37 286.752 2174.7 283.054 2173.29C279.355 2171.88 275.971 2169.76 273.094 2167.04C270.216 2164.32 267.903 2161.06 266.286 2157.45C264.668 2153.84 263.779 2149.94 263.668 2145.98C263.668 1912.9 397.281 1709.42 595.888 1600.46C594.139 1594.46 593.251 1588.25 593.251 1582V1384.25C593.251 1331.8 614.086 1281.51 651.171 1244.42C688.256 1207.34 738.555 1186.5 791.001 1186.5H1384.25C1436.7 1186.5 1487 1207.34 1524.08 1244.42C1561.17 1281.51 1582 1331.8 1582 1384.25V1582C1582 1599.48 1575.06 1616.25 1562.69 1628.61C1550.33 1640.97 1533.57 1647.92 1516.08 1647.92V1713.83H1927.4L2037.02 1147.41ZM2043.42 922.835C2043.42 887.87 2057.31 854.338 2082.03 829.614C2106.75 804.891 2140.29 791.001 2175.25 791.001H2307.08V1054.67H2175.25C2140.29 1054.67 2106.75 1040.78 2082.03 1016.05C2057.31 991.331 2043.42 957.799 2043.42 922.835ZM1901.83 1845.67H1516.08V2043.42H1863.6L1901.83 1845.67ZM1997.87 2043.42H2074.07C2097.89 1942.89 2157.23 1854.36 2241.17 1794.12V1186.5H2163.72L1997.87 2043.42ZM2284.61 2245.52C2306.85 2289.98 2342.85 2326.07 2387.26 2348.42C2431.67 2370.76 2482.1 2378.17 2531.06 2369.54C2580.02 2360.91 2624.88 2336.7 2658.97 2300.52C2693.06 2264.34 2714.55 2218.11 2720.25 2168.73L2284.61 2245.52ZM725.085 1384.25C725.085 1366.77 732.029 1350 744.391 1337.64C756.753 1325.28 773.519 1318.33 791.001 1318.33H1384.25C1401.73 1318.33 1418.5 1325.28 1430.86 1337.64C1443.22 1350 1450.17 1366.77 1450.17 1384.25V1516.08H725.085V1384.25ZM406.971 2043.42C457.067 1821.61 666.617 1647.92 928.504 1647.92H1384.25V2041.31C1382.07 2042.72 1379.53 2043.45 1376.93 2043.42H406.971ZM1161.39 2176.77C1169.69 2177.03 1177.16 2177.32 1183.8 2177.62C1175.39 2232.06 1147.78 2281.7 1105.96 2317.56C1064.15 2353.41 1010.88 2373.12 955.793 2373.12C900.707 2373.12 847.439 2353.41 805.621 2317.56C763.803 2281.7 736.194 2232.06 727.787 2177.62C734.423 2177.27 741.893 2176.99 750.199 2176.77C798.714 2175.25 864.169 2175.25 955.793 2175.25C1047.42 2175.25 1112.87 2175.25 1161.45 2176.77M2661.19 1899.26C2617.76 1868.84 2566.97 1850.62 2514.11 1846.49C2461.26 1842.37 2408.26 1852.48 2360.63 1875.79C2313.01 1899.1 2272.5 1934.74 2243.33 1979.02C2214.16 2023.29 2197.39 2074.57 2194.76 2127.53L2764.41 2027.07C2742.74 1975.57 2706.95 1931.31 2661.19 1899.26Z" fill="black"/>
</svg>
