<svg width="22" height="25" viewBox="0 0 22 25" fill="none" xmlns="http://www.w3.org/2000/svg">
<g clip-path="url(#clip0_11_2724)">
<path d="M13.8898 21.9219C13.5066 22.7715 13.2533 23.6936 13.1562 24.6606L21.2654 22.9368C21.6486 22.0873 21.9017 21.165 21.9989 20.1981L13.8898 21.9219Z" fill="#121722"/>
<path d="M21.2656 17.7725C21.6488 16.923 21.9021 16.0007 21.9991 15.0338L15.6823 16.3772V13.7946L21.2654 12.6081C21.6486 11.7587 21.9019 10.8364 21.9989 9.86944L15.6822 11.2118V1.92382C14.7142 2.46728 13.8546 3.19069 13.1559 4.04399V11.7489L10.6296 12.2859V0.660583C9.66166 1.20385 8.80206 1.92745 8.10329 2.78075V12.8227L2.45072 14.0238C2.06752 14.8733 1.81404 15.7956 1.7168 16.7625L8.10329 15.4053V18.6577L1.25892 20.1121C0.875728 20.9616 0.622431 21.8839 0.525391 22.8508L7.68954 21.3284C8.27273 21.2071 8.77398 20.8623 9.09986 20.3878L10.4137 18.4399V18.4395C10.5501 18.238 10.6296 17.995 10.6296 17.7333V14.8683L13.1559 14.3314V19.4966L21.2654 17.7721L21.2656 17.7725Z" fill="#121722"/>
</g>
<defs>
<clipPath id="clip0_11_2724">
<rect width="21.4737" height="24" fill="white" transform="translate(0.525391 0.660583)"/>
</clipPath>
</defs>
</svg>
